<svg width="19" height="19" viewBox="0 0 19 19" fill="none" xmlns="http://www.w3.org/2000/svg">
<g id="Group 367">
<rect id="Rectangle 140" x="1" y="1" width="17" height="17" rx="4" stroke="white" stroke-width="2"/>
<path id="Union" fill-rule="evenodd" clip-rule="evenodd" d="M5.26172 5.58042C5.26172 4.98382 5.74603 4.49951 6.34263 4.49951C6.939 4.49951 7.42331 4.98382 7.42354 5.58042C7.42354 6.17702 6.93923 6.67142 6.34263 6.67142C5.74603 6.67142 5.26172 6.17702 5.26172 5.58042ZM14.2598 13.5019V13.5014H14.2622V10.2C14.2622 8.58512 13.9145 7.34082 12.0263 7.34082C11.1186 7.34082 10.5096 7.83896 10.2609 8.31109H10.2346V7.49155H8.44434V13.5014H10.3084V10.5257C10.3084 9.74222 10.4571 8.98458 11.4273 8.98458C12.3835 8.98458 12.3976 9.87865 12.3976 10.5761V13.5019H14.2598ZM7.27563 7.49121H5.40918V13.501H7.27563V7.49121Z" fill="white"/>
</g>
</svg>
