<svg width="73" height="73" viewBox="0 0 73 73" fill="none" xmlns="http://www.w3.org/2000/svg">
<path fill-rule="evenodd" clip-rule="evenodd" d="M36.5 73C56.6584 73 73 56.6584 73 36.5C73 16.3416 56.6584 0 36.5 0C16.3416 0 0 16.3416 0 36.5C0 56.6584 16.3416 73 36.5 73ZM51.3393 35.002V31.31H58.0733V27.748H46.8933V46H58.0733V42.438H51.3393V38.4341H57.2933V35.002H51.3393ZM34.8407 27.748C36.7647 27.748 38.446 28.1294 39.8847 28.892C41.3234 29.6547 42.4327 30.7294 43.2127 32.116C44.01 33.4854 44.4087 35.0714 44.4087 36.874C44.4087 38.6594 44.01 40.2454 43.2127 41.632C42.4327 43.0187 41.3147 44.0934 39.8587 44.856C38.42 45.6187 36.7474 46 34.8407 46H28.0027V27.748H34.8407ZM34.5547 42.152C36.236 42.152 37.5447 41.6927 38.4807 40.774C39.4167 39.8554 39.8847 38.5554 39.8847 36.874C39.8847 35.1927 39.4167 33.884 38.4807 32.948C37.5447 32.012 36.236 31.544 34.5547 31.544H32.4487V42.152H34.5547ZM25.8821 42.568H20.0581V27.748H15.6121V46H25.8821V42.568Z" fill="url(#paint0_linear_1_734)"/>
<defs>
<linearGradient id="paint0_linear_1_734" x1="0" y1="0" x2="73" y2="73" gradientUnits="userSpaceOnUse">
<stop stop-color="#00BE5E"/>
<stop offset="1" stop-color="#00E8E0"/>
</linearGradient>
</defs>
</svg>
