<svg width="58" height="58" viewBox="0 0 58 58" fill="none" xmlns="http://www.w3.org/2000/svg">
<g id="Group 1058">
<rect id="Rectangle 419" width="58" height="58" rx="29" fill="white"/>
<path id="Vector" d="M29.9411 31.5432L29.9412 31.5431C30.8876 30.9041 31.6401 29.9976 32.0892 28.9351C32.3886 28.2268 32.5545 27.4493 32.5545 26.6286C32.5545 26.013 32.4611 25.4219 32.2883 24.8661C32.1151 24.3102 31.8626 23.7892 31.543 23.3163L31.543 23.3162C30.9037 22.3698 29.9971 21.6173 28.9349 21.1682C28.2266 20.8688 27.4491 20.7028 26.6285 20.7028C26.0129 20.7028 25.4219 20.7963 24.8661 20.9691L29.9411 31.5432ZM29.9411 31.5432C29.4682 31.8628 28.9471 32.1154 28.3912 32.2885C27.8355 32.4613 27.2444 32.5547 26.6288 32.5547C25.8082 32.5547 25.0307 32.3888 24.3225 32.0894C23.2603 31.6403 22.3537 30.8878 21.7144 29.9413L21.7143 29.9413M29.9411 31.5432L21.7143 29.9413M21.7143 29.9413C21.3948 29.4684 21.1422 28.9473 20.9691 28.3915C20.7963 27.8357 20.7028 27.2446 20.7028 26.6289C20.7028 25.8083 20.8688 25.0308 21.1681 24.3225C21.6173 23.2603 22.3697 22.3537 23.3162 21.7144L23.3162 21.7144M21.7143 29.9413L23.3162 21.7144M23.3162 21.7144C23.7891 21.3948 24.3102 21.1422 24.866 20.9691L23.3162 21.7144ZM39.1767 38.1495L39.3536 37.9727L39.1768 37.7959L32.8477 31.4667C32.957 31.3265 33.0617 31.1824 33.1615 31.0348L33.1616 31.0347C33.5863 30.4062 33.9229 29.7125 34.1534 28.9715C34.384 28.2305 34.5079 27.4429 34.5079 26.6289C34.5079 25.5437 34.2874 24.5051 33.8883 23.5619C33.2898 22.1468 32.2916 20.9455 31.0348 20.0963C30.4063 19.6716 29.7126 19.3351 28.9717 19.1045L28.9717 19.1045C28.2304 18.8739 27.4427 18.75 26.6288 18.75C25.5436 18.75 24.505 18.9706 23.5618 19.3696C22.1468 19.9682 20.9455 20.9664 20.0963 22.2232C19.6716 22.8517 19.3351 23.5454 19.1045 24.2863C18.8739 25.0274 18.75 25.815 18.75 26.6289C18.75 27.7142 18.9706 28.7528 19.3696 29.6959C19.9682 31.111 20.9664 32.3123 22.2231 33.1615C22.8516 33.5863 23.5453 33.9228 24.2862 34.1533C25.0273 34.3839 25.8149 34.5079 26.6288 34.5079C27.714 34.5079 28.7527 34.2873 29.6958 33.8883C30.3338 33.6184 30.9283 33.2674 31.4665 32.8479L37.7953 39.1768L37.972 39.3535L38.1488 39.1768L39.1767 38.1495Z" fill="#006668" stroke="#005C66" stroke-width="0.5"/>
</g>
</svg>
