<svg width="22" height="22" viewBox="0 0 22 22" fill="none" xmlns="http://www.w3.org/2000/svg">
<path d="M11.9411 13.5432L11.9412 13.5431C12.8876 12.9041 13.6401 11.9976 14.0892 10.9351C14.3886 10.2268 14.5545 9.44927 14.5545 8.62864C14.5545 8.013 14.4611 7.42189 14.2883 6.86611C14.1151 6.31024 13.8626 5.78917 13.543 5.31626L13.543 5.31623C12.9037 4.36979 11.9971 3.61731 10.9349 3.16817C10.2266 2.86879 9.44914 2.70284 8.62853 2.70284C8.01294 2.70284 7.42187 2.79629 6.86614 2.96908L11.9411 13.5432ZM11.9411 13.5432C11.4682 13.8628 10.9471 14.1154 10.3912 14.2885C9.83547 14.4613 9.2444 14.5547 8.62882 14.5547C7.80821 14.5547 7.03073 14.3888 6.32245 14.0894C5.26026 13.6403 4.35369 12.8878 3.71436 11.9413L3.71434 11.9413M11.9411 13.5432L3.71434 11.9413M3.71434 11.9413C3.39479 11.4684 3.14221 10.9473 2.96909 10.3915C2.79628 9.83568 2.70282 9.24457 2.70282 8.62893C2.70282 7.80831 2.86876 7.03082 3.16813 6.32252C3.61726 5.26032 4.36974 4.35373 5.31618 3.71439L5.3162 3.71437M3.71434 11.9413L5.3162 3.71437M5.3162 3.71437C5.78911 3.39482 6.31017 3.14224 6.86603 2.96911L5.3162 3.71437ZM21.1767 20.1495L21.3536 19.9727L21.1768 19.7959L14.8477 13.4667C14.957 13.3265 15.0617 13.1824 15.1615 13.0348L15.1616 13.0347C15.5863 12.4062 15.9229 11.7125 16.1534 10.9715C16.384 10.2305 16.5079 9.44286 16.5079 8.62893C16.5079 7.5437 16.2874 6.50505 15.8883 5.56192C15.2898 4.14684 14.2916 2.94555 13.0348 2.09632C12.4063 1.6716 11.7126 1.33508 10.9717 1.10452L10.9717 1.10451C10.2304 0.87392 9.44275 0.75 8.62882 0.75C7.54359 0.75 6.50495 0.970558 5.56183 1.36961C4.14679 1.96818 2.94551 2.96641 2.0963 4.22315C1.67159 4.85167 1.33507 5.5454 1.10451 6.28631C0.873916 7.02736 0.75 7.815 0.75 8.62893C0.75 9.71416 0.970551 10.7528 1.36959 11.6959C1.96816 13.111 2.96638 14.3123 4.2231 15.1615C4.85161 15.5863 5.54533 15.9228 6.28623 16.1533C7.02727 16.3839 7.8149 16.5079 8.62882 16.5079C9.71403 16.5079 10.7527 16.2873 11.6958 15.8883C12.3338 15.6184 12.9283 15.2674 13.4665 14.8479L19.7953 21.1768L19.972 21.3535L20.1488 21.1768L21.1767 20.1495Z" fill="#006668" stroke="#005C66" stroke-width="0.5"/>
</svg>
