<svg width="20" height="15" viewBox="0 0 20 15" fill="none" xmlns="http://www.w3.org/2000/svg">
<g id="Group 375">
<g id="Group 49">
<path id="Vector" d="M9.73806 14.0251H9.73274C9.14708 14.0209 3.96994 13.9738 2.50313 13.5773C1.47803 13.302 0.669042 12.4934 0.392543 11.4683C0.00855836 10.0273 0.0332457 7.25316 0.0359044 7.03174C0.0332457 6.81145 0.00855836 4.01417 0.391403 2.56141L0.392543 2.55724C0.666003 1.54391 1.49322 0.710238 2.50085 0.434119C2.50313 0.433359 2.50579 0.4326 2.50844 0.43222C3.95854 0.0505143 9.14632 0.00417787 9.73312 0H9.74376C10.3309 0.00417787 15.5218 0.0512739 16.9753 0.448551C17.9977 0.723151 18.8063 1.53062 19.0832 2.55458C19.4812 4.00848 19.4444 6.81145 19.4406 7.04807C19.4433 7.28127 19.4668 10.0303 19.0851 11.4785L19.084 11.4827C18.8075 12.5078 17.9985 13.316 16.9722 13.5921L16.9681 13.5933C15.518 13.9742 10.3302 14.0209 9.74376 14.0251H9.73806ZM1.85708 2.94996C1.51981 4.23218 1.55171 6.99375 1.55209 7.02148V7.04161C1.54222 7.8073 1.57754 10.0254 1.85708 11.0755C1.99267 11.5784 2.39184 11.9768 2.89775 12.1132C3.98019 12.406 8.19642 12.4979 9.73768 12.5089C11.2827 12.4979 15.5058 12.4087 16.5799 12.1276C17.0843 11.9912 17.4819 11.594 17.6187 11.0903C17.899 10.0246 17.9339 7.81755 17.9236 7.05642C17.9236 7.04845 17.9236 7.04047 17.9236 7.0325C17.9377 6.25731 17.91 4.01379 17.6198 2.95489L17.619 2.95186C17.4827 2.44671 17.0835 2.0483 16.5776 1.91195C15.5058 1.61911 11.2824 1.5272 9.73768 1.51619C8.19339 1.5272 3.97488 1.61646 2.89737 1.89713C2.40134 2.035 1.99305 2.44785 1.85708 2.94996ZM7.8056 10.0827V3.94201L13.1126 7.01237L7.8056 10.0827Z" fill="white"/>
</g>
</g>
</svg>
